<svg width="64" height="64" viewBox="0 0 64 64" fill="none" xmlns="http://www.w3.org/2000/svg">
  <title>番时表</title>
  <defs>
    <linearGradient id="calendar" x1="11" y1="6" x2="53" y2="58" gradientUnits="userSpaceOnUse">
      <stop stop-color="#CF4B7B"/>
      <stop offset="1" stop-color="#96306D"/>
    </linearGradient>
  </defs>
  <path d="M13 7H51C55.4183 7 59 10.5817 59 15V45L45 59H13C8.58172 59 5 55.4183 5 51V15C5 10.5817 8.58172 7 13 7Z" fill="url(#calendar)"/>
  <path d="M5 22H59" stroke="#F7D7E3" stroke-width="3.5"/>
  <path d="M25 30.3V47.7C25 49.5 27 50.6 28.5 49.6L41.5 40.9C42.9 40 42.9 38 41.5 37.1L28.5 28.4C27 27.4 25 28.5 25 30.3Z" fill="#FFF9FB"/>
  <path d="M45 59V49C45 46.7909 46.7909 45 49 45H59L45 59Z" fill="#64D2CF"/>
</svg>
